#!OML:ASF Y:\EmotionMaleHayes\Project 1\Capture day 1\Session 1\Male1.ASF
:FULLY-SPECIFIED
:DEGREES
405
root 49.6238 17.7481 1.33081 4.30387 27.4613 -373.294
lowerback 21.0654 -4.75366 -12.2289
upperback 6.24029 -8.4306 2.53005
thorax -2.56185 -4.31549 11.499
lowerneck -10.2803 23.1557 15.4856
upperneck 3.77805 31.5145 -21.6402
head 8.74157 14.5283 -4.38957
rclavicle -3.49861e-014 -3.18055e-015
rhumerus -57.4128 -35.6381 -32.9785
rradius 58.4975
rwrist -89.9929
rhand -32.4548 -53.6028
rfingers 7.12502
rthumb -5.68781 -83.5064
lclavicle -3.49861e-014 -3.18055e-015
lhumerus 71.5443 -34.727 50.9077
lradius 64.5905
lwrist 11.828
lhand -34.9884 -43.5527
lfingers 7.12502
lthumb -8.13361 -13.7292
rfemur -57.1831 0.20758 26.0582
rtibia 60.6685
rfoot -8.20335 1.77103
rtoes 0.759469
lfemur -0.175699 16.6716 -33.0035
ltibia 1.4299
lfoot 2.16383 -4.59717
ltoes 11.7727
406
root 49.9456 17.8145 1.35001 5.88991 29.234 -373.153
lowerback 20.5301 -5.09612 -11.9675
upperback 6.22566 -8.74882 2.67806
thorax -2.23177 -4.4993 11.4873
lowerneck -10.7414 23.1356 15.0038
upperneck 3.43298 31.3532 -21.2853
head 8.52537 14.4686 -4.26136
rclavicle 1.74931e-014 2.8625e-014
rhumerus -58.8338 -37.1205 -32.1183
rradius 53.8404
rwrist -93.2598
rhand -34.384 -55.2869
rfingers 7.12502
rthumb -7.55019 -85.1322
lclavicle 1.74931e-014 2.8625e-014
lhumerus 74.4133 -38.217 48.2921
lradius 64.9627
lwrist 11.5708
lhand -33.5882 -41.3917
lfingers 7.12502
lthumb -6.78203 -11.5203
rfemur -57.8427 0.71068 27.3952
rtibia 58.4478
rfoot -6.74372 4.41731
rtoes -1.46837
lfemur -1.06691 18.6429 -33.8076
ltibia 3.86846
lfoot 2.02083 -6.97295
ltoes 4.87676
407
root 50.2713 17.8656 1.36906 7.29861 31.1834 -372.925
lowerback 20.0932 -5.43953 -11.5396
upperback 6.32055 -9.0398 2.87136
thorax -1.85928 -4.67597 11.4277
lowerneck -11.2855 23.0215 14.5409
upperneck 2.97805 31.1195 -21.3977
head 8.37587 14.3498 -4.27102
rclavicle 6.52014e-014 3.81667e-014
rhumerus -60.1411 -38.674 -31.4177
rradius 49.6204
rwrist -91.6014
rhand -35.2757 -56.4269
rfingers 7.12502
rthumb -8.41082 -86.2394
lclavicle 6.52014e-014 3.81667e-014
lhumerus 77.4113 -41.378 45.6014
lradius 65.2659
lwrist 10.1491
lhand -31.4617 -38.7478
lfingers 7.12502
lthumb -4.72899 -8.82062
rfemur -58.001 1.05843 28.4645
rtibia 55.7234
rfoot -5.17464 7.12148
rtoes -2.89324
lfemur -1.55027 18.3142 -34.7454
ltibia 6.48701
lfoot 0.829153 -7.19975
ltoes 0.874044
408
root 50.6046 17.8984 1.38669 8.49148 33.2814 -372.411
lowerback 19.9505 -5.7875 -11.1108
upperback 6.46604 -9.36303 3.11916
thorax -1.5646 -4.86405 11.4682
lowerneck -11.6419 22.8229 14.0974
upperneck 2.31575 30.859 -22.1406
head 8.25756 14.2108 -4.47888
rclavicle -1.19271e-013 -2.54444e-014
rhumerus -61.8651 -40.5079 -30.0834
rradius 45.9386
rwrist -88.2465
rhand -36.341 -57.2432
rfingers 7.12502
rthumb -9.43885 -87.0118
lclavicle -1.19271e-013 -2.54444e-014
lhumerus 80.0224 -44.2673 43.4098
lradius 65.5761
lwrist 7.50434
lhand -28.7628 -36.2988
lfingers 7.12502
lthumb -2.12264 -6.3296
rfemur -57.4959 1.01213 29.1026
rtibia 52.4069
rfoot -3.66102 9.85793
rtoes -4.45436
lfemur -1.44431 16.7692 -35.8197
ltibia 9.26848
lfoot -0.0692137 -5.23474
ltoes 5.1533
409
root 50.9428 17.9076 1.4051 9.76265 35.4047 -371.371
lowerback 19.8919 -6.20434 -10.9623
upperback 6.56728 -9.84455 3.29131
thorax -1.28251 -5.12987 11.6142
lowerneck -12.0523 22.6025 13.3346
upperneck 2.00374 30.5882 -22.3359
head 8.10376 14.0712 -4.50059
rclavicle -1.59028e-015 -2.54444e-014
rhumerus -63.9597 -42.3829 -28.2693
rradius 42.7293
rwrist -83.1397
rhand -36.9171 -56.6213
rfingers 7.12502
rthumb -9.99465 -86.364
lclavicle -1.59028e-015 -2.54444e-014
lhumerus 81.687 -47.0451 41.8301
lradius 65.9807
lwrist 3.85669
lhand -25.7212 -34.4273
lfingers 7.12502
lthumb 0.815047 -4.44909
rfemur -56.7033 0.741828 29.1063
rtibia 48.8853
rfoot -2.08951 12.3523
rtoes -3.52305
lfemur -1.06324 15.6367 -37.072
ltibia 12.5735
lfoot -0.849763 -3.6509
ltoes 3.46359
410
root 51.2858 17.8913 1.42238 11.078 37.665 -370.03
lowerback 19.8327 -6.78489 -10.8176
upperback 6.66171 -10.5436 3.3715
thorax -0.965541 -5.50368 11.6799
lowerneck -12.1202 22.4411 12.6822
upperneck 1.55116 30.3922 -22.5542
head 7.88335 14.0022 -4.55616
rclavicle 3.81667e-014 -1.59028e-014
rhumerus -66.0656 -44.0854 -26.335
rradius 39.6911
rwrist -76.8245
rhand -37.3841 -55.6716
rfingers 7.12502
rthumb -10.4452 -85.3922
lclavicle 3.81667e-014 -1.59028e-014
lhumerus 82.1606 -49.8037 40.9774
lradius 66.477
lwrist -0.951187
lhand -22.2109 -33.3627
lfingers 7.12502
lthumb 4.20514 -3.42449
rfemur -55.822 0.0130787 28.961
rtibia 45.7853
rfoot -1.12958 14.9312
rtoes -5.86632
lfemur -0.448692 14.8304 -38.2018
ltibia 16.3043
lfoot -1.34002 -2.21343
ltoes 1.80042
411
root 51.6312 17.8494 1.44258 12.0894 40.1568 -368.918
lowerback 19.8061 -7.61356 -10.0472
upperback 6.75619 -11.4538 3.32858
thorax -0.773676 -5.95317 11.2905
lowerneck -11.9694 22.3383 12.1955
upperneck 1.11145 30.254 -22.6591
head 7.64417 13.9818 -4.60302
rclavicle 9.54166e-015 -5.40694e-014
rhumerus -68.0668 -45.2539 -24.6503
rradius 36.6804
rwrist -70.0757
rhand -37.5947 -55.0033
rfingers 7.12502
rthumb -10.6483 -84.7135
lclavicle 9.54166e-015 -5.40694e-014
lhumerus 81.4607 -52.5654 40.6172
lradius 67.1017
lwrist -6.11384
lhand -18.8202 -33.5847
lfingers 7.12502
lthumb 7.47867 -3.73691
rfemur -54.6141 -0.746984 28.731
rtibia 42.6018
rfoot 0.970953 16.375
rtoes 1.37653
lfemur 0.534557 13.7243 -38.7435
ltibia 20.2078
lfoot -1.91923 -0.825833
ltoes 0.269858
412
root 51.9546 17.783 1.49958 12.7596 41.713 -367.888
lowerback 19.5736 -8.00515 -10.0921
upperback 7.0093 -11.9278 3.31682
thorax -0.241263 -6.23834 11.2726
lowerneck -11.753 22.248 11.6439
upperneck 0.724739 30.1317 -22.6104
head 7.37563 13.9786 -4.60512
rclavicle 8.74653e-014 -4.77083e-015
rhumerus -69.6655 -45.9344 -23.2909
rradius 33.868
rwrist -63.7046
rhand -38.1127 -56.0607
rfingers 7.12502
rthumb -11.1479 -85.7446
lclavicle 8.74653e-014 -4.77083e-015
lhumerus 79.8029 -55.1746 40.8682
lradius 67.6759
lwrist -11.0278
lhand -18.3381 -34.6919
lfingers 7.12502
lthumb 7.94401 -4.86117
rfemur -53.0716 -0.576948 28.7735
rtibia 39.716
rfoot 2.88751 16.1399
rtoes 6.92416
lfemur 1.91509 13.5491 -38.8243
ltibia 23.9596
lfoot -2.62372 0.125878
ltoes 1.2468
413
root 52.2819 17.6992 1.56424 13.3216 43.1001 -366.616
lowerback 19.4591 -8.31488 -10.4141
upperback 7.31951 -12.3517 3.22775
thorax 0.328512 -6.50786 11.3216
lowerneck -12.4212 22.2163 10.8061
upperneck 1.41579 30.1505 -21.666
head 7.4009 13.9418 -4.19369
rclavicle -3.65764e-014 -1.59028e-014
rhumerus -71.1083 -46.2473 -22.1929
rradius 31.7033
rwrist -58.4707
rhand -38.4925 -57.1679
rfingers 7.12502
rthumb -11.5143 -86.8316
lclavicle -3.65764e-014 -1.59028e-014
lhumerus 77.2603 -57.7216 41.7515
lradius 68.0211
lwrist -15.3924
lhand -16.9861 -36.4156
lfingers 7.12502
lthumb 9.24879 -6.63844
rfemur -51.1962 -0.397226 28.5327
rtibia 37.1242
rfoot 4.01293 14.5118
rtoes 8.29798
lfemur 3.68879 13.4808 -38.8326
ltibia 27.6344
lfoot -2.56937 0.287563
ltoes 0.211744
414
root 52.613 17.595 1.62626 14.3618 44.6977 -365.013
lowerback 18.8547 -8.7947 -10.4126
upperback 7.6512 -12.9026 2.87157
thorax 1.05908 -6.82894 10.8125
lowerneck -12.0052 22.1151 10.9338
upperneck 0.887398 29.9623 -21.9811
head 7.21724 13.9104 -4.38877
rclavicle -3.49861e-014 3.49861e-014
rhumerus -72.8985 -46.3273 -21.2538
rradius 30.265
rwrist -54.7986
rhand -37.7435 -57.9395
rfingers 7.12502
rthumb -10.7919 -87.6422
lclavicle -3.49861e-014 3.49861e-014
lhumerus 74.3159 -60.2717 42.5898
lradius 68.1507
lwrist -18.5491
lhand -18.0682 -37.887
lfingers 7.12502
lthumb 8.20455 -8.0663
rfemur -49.9425 -0.743525 28.1074
rtibia 36.4668
rfoot 3.42463 12.9224
rtoes 6.02034
lfemur 5.27369 13.2035 -38.8844
ltibia 31.4664
lfoot -3.17771 0.0679578
ltoes -0.642614
415
root 52.9422 17.4747 1.68944 15.8298 46.1676 -362.9
lowerback 18.3903 -8.96552 -11.0079
upperback 7.78352 -13.1701 2.72636
thorax 1.62613 -7.01825 10.8691
lowerneck -12.6833 21.8829 10.6099
upperneck 1.63521 29.6935 -21.3076
head 7.35274 13.7189 -4.15318
rclavicle 7.15625e-014 -4.77083e-014
rhumerus -74.273 -45.7439 -20.7168
rradius 30.5325
rwrist -56.1102
rhand -39.481 -62.0081
rfingers 7.12502
rthumb -12.4674 91.6162
lclavicle 7.15625e-014 -4.77083e-014
lhumerus 70.7359 -62.8576 44.6265
lradius 67.9443
lwrist -20.4926
lhand -20.4004 -38.8293
lfingers 7.12502
lthumb 5.95328 -8.93291
rfemur -49.281 -1.1205 27.3573
rtibia 36.6796
rfoot 2.83524 10.9219
rtoes 5.43454
lfemur 6.82895 13.0442 -39.0212
ltibia 35.4225
lfoot -3.14424 0.178255
ltoes -0.682209
416
root 53.27 17.345 1.75828 17.0984 47.4792 -360.982
lowerback 17.8182 -9.02415 -11.3848
upperback 8.01008 -13.2329 2.42244
thorax 2.20356 -7.09277 10.5944
lowerneck -13.0334 21.6499 11.0221
upperneck 2.15281 29.3506 -21.0379
head 7.53651 13.5132 -4.14487
rclavicle -1.20861e-013 4.45278e-014
rhumerus -76.4795 -45.2045 -19.63
rradius 31.1658
rwrist -58.2372
rhand -39.0248 -62.0187
rfingers 7.12502
rthumb -12.0276 91.6531
lclavicle -1.20861e-013 4.45278e-014
lhumerus 69.5776 -65.0161 43.0859
lradius 67.3183
lwrist -20.0593
lhand -23.3141 -39.845
lfingers 7.12502
lthumb 3.13972 -9.88837
rfemur -48.2688 -1.4723 26.8035
rtibia 37.1663
rfoot 2.16342 9.37078
rtoes 0.752213
lfemur 8.49383 12.9287 -38.7253
ltibia 39.3962
lfoot -3.51409 0.992086
ltoes 0.615516
417
root 53.6053 17.1969 1.82031 18.9832 49.1638 -358.417
lowerback 17.2837 -9.20936 -11.6674
upperback 8.02631 -13.4584 2.02206
thorax 2.51995 -7.21081 10.2076
lowerneck -13.1183 21.3709 11.7707
upperneck 2.68552 28.9289 -20.8966
head 7.74368 13.2826 -4.24694
rclavicle -9.54166e-015 -3.33958e-014
rhumerus -79.1235 -44.3234 -17.9843
rradius 32.3191
rwrist -61.4955
rhand -39.3116 -62.2014
rfingers 7.12502
rthumb -12.3041 91.8194
lclavicle -9.54166e-015 -3.33958e-014
lhumerus 61.0669 -67.8254 50.0298
lradius 66.7806
lwrist -21.3557
lhand -25.2477 -41.2175
lfingers 7.12502
lthumb 1.2723 -11.2416
rfemur -47.2598 -2.34615 25.5913
rtibia 37.7954
rfoot 1.75633 7.96325
rtoes 0.318765
lfemur 10.109 12.2407 -38.5949
ltibia 43.5039
lfoot -4.0747 2.41841
ltoes 1.81014
